<?xml version="1.0" standalone="no"?>
<!DOCTYPE svg PUBLIC "-//W3C//DTD SVG 20010904//EN"
 "http://www.w3.org/TR/2001/REC-SVG-20010904/DTD/svg10.dtd">
<svg version="1.0" xmlns="http://www.w3.org/2000/svg"
 width="80.000000pt" height="80.000000pt" viewBox="0 0 80.000000 80.000000"
 preserveAspectRatio="xMidYMid meet">
<metadata>
Created by potrace 1.14, written by Peter Selinger 2001-2017
</metadata>
<g transform="translate(0.000000,80.000000) scale(0.100000,-0.100000)"
fill="#000000" stroke="none">
<path d="M154 696 c-34 -23 -56 -46 -63 -67 -15 -42 -15 -467 0 -506 6 -15 20
-38 31 -50 21 -22 26 -23 236 -23 l215 0 43 36 44 35 0 288 c0 266 -1 289 -18
304 -16 15 -47 17 -228 17 l-209 0 -51 -34z m392 -67 c17 -19 19 -41 22 -239
3 -177 1 -224 -12 -254 l-15 -36 -190 0 c-185 0 -190 1 -205 22 -13 19 -16 60
-16 246 0 219 4 255 34 274 6 4 90 8 187 8 166 0 177 -1 195 -21z"/>
<path d="M317 614 c-4 -4 -7 -25 -7 -46 l0 -38 -48 0 c-27 0 -57 -7 -70 -16
-19 -13 -22 -24 -22 -84 0 -60 3 -71 22 -84 13 -9 43 -16 70 -16 l47 0 3 -92
c3 -85 5 -93 23 -93 18 0 20 8 23 91 l3 92 56 4 c70 6 83 22 83 100 0 76 -20
98 -89 98 l-50 0 -3 42 c-3 41 -22 60 -41 42z m-7 -184 l0 -50 -45 0 -45 0 0
50 0 50 45 0 45 0 0 -50z m140 0 l0 -50 -45 0 -45 0 0 50 0 50 45 0 45 0 0
-50z"/>
</g>
</svg>
